<svg xmlns="http://www.w3.org/2000/svg" xmlns:xlink="http://www.w3.org/1999/xlink" viewBox="0 0 139.115 40.016" overflow="visible"><g><path d="M 0 0 L 138.99 0 L 138.99 40 L 0 40 Z" fill="transparent"></path><g><defs><linearGradient id="idsmHoLyrIdka3yRndsE5_3g807137140" x1="0" x2="1" y1="0.4975124378109453" y2="0.5024875621890547"><stop offset="0" stop-color="rgb(255,0,102)" stop-opacity="1"></stop><stop offset="1" stop-color="rgb(255,97,19)" stop-opacity="1"></stop></linearGradient></defs><path d="M 7.037 23.709 C 7.004 23.654 6.972 23.6 6.941 23.543 C 6.974 23.599 7.006 23.655 7.037 23.709 Z M 7.095 23.806 C 7.075 23.774 7.056 23.742 7.037 23.709 C 7.056 23.741 7.076 23.773 7.095 23.806 Z M 6.941 23.543 C 6.889 23.455 6.84 23.37 6.792 23.281 C 6.84 23.37 6.893 23.459 6.941 23.543 Z M 6.646 23.014 C 6.691 23.103 6.739 23.188 6.788 23.277 C 6.739 23.192 6.691 23.103 6.646 23.014 Z M 6.505 22.752 C 6.549 22.84 6.598 22.929 6.642 23.014 C 6.594 22.925 6.549 22.84 6.505 22.752 Z M 6.372 22.477 C 6.327 22.392 6.283 22.303 6.242 22.214 C 6.287 22.299 6.327 22.388 6.372 22.477 Z M 6.238 22.21 C 6.198 22.125 6.158 22.036 6.117 21.947 C 6.158 22.032 6.198 22.121 6.238 22.21 Z M 6 21.681 C 6.036 21.77 6.077 21.855 6.113 21.943 C 6.073 21.859 6.036 21.77 6 21.681 Z M 30.788 14.84 L 33.693 15.62 L 35.778 16.178 L 35.778 4.792 L 17.891 0 L 0 4.792 L 0 17.261 C 0 17.398 0 17.535 0.008 17.673 L 2.129 18.242 C 2.101 17.915 2.089 17.592 2.089 17.261 L 2.089 6.392 L 17.891 2.158 L 33.697 6.392 L 33.697 13.459 L 30.792 12.679 L 30.792 8.618 L 17.891 5.164 L 6.287 8.271 L 4.99 8.618 L 4.99 16.752 L 17.887 20.206 L 17.887 24.618 L 5.883 21.402 L 2.521 20.501 L 0.251 19.891 C 0.396 20.675 0.606 21.451 0.865 22.214 C 1.96 25.438 3.972 28.416 6.141 30.917 C 8.655 33.814 12.166 36.994 15.56 38.788 L 17.891 40.016 L 20.222 38.788 C 23.62 36.994 27.127 33.814 29.64 30.917 C 32.663 27.434 35.378 23.026 35.741 18.319 L 33.685 17.77 C 33.491 22.141 30.853 26.339 28.065 29.556 C 25.762 32.21 22.376 35.297 19.248 36.949 L 17.891 37.665 L 16.533 36.949 C 13.406 35.297 10.016 32.21 7.717 29.556 C 6.044 27.628 4.428 25.345 3.358 22.885 L 7.154 23.903 C 10.033 28.685 15.085 32.898 17.891 34.38 C 20.085 33.22 23.657 30.392 26.485 26.925 C 27.451 25.741 28.331 24.485 29.038 23.196 C 29.762 21.883 30.303 20.533 30.586 19.196 L 12.739 14.416 L 12.739 10.005 Z" fill="url(#idsmHoLyrIdka3yRndsE5_3g807137140)"></path></g><path d="M 60.747 19.321 C 59.798 18.893 58.703 18.626 57.459 18.517 L 56.154 18.4 C 55.374 18.339 54.816 18.129 54.473 17.77 C 54.129 17.41 53.96 16.994 53.96 16.509 C 53.96 16.137 54.053 15.79 54.238 15.471 C 54.424 15.152 54.707 14.901 55.091 14.711 C 55.471 14.525 55.943 14.432 56.501 14.432 C 57.091 14.432 57.584 14.541 57.984 14.76 C 58.38 14.978 58.679 15.261 58.881 15.612 C 59.083 15.964 59.184 16.347 59.184 16.768 L 62.917 16.768 C 62.917 15.648 62.663 14.671 62.145 13.838 C 61.632 13.006 60.897 12.36 59.939 11.903 C 58.982 11.446 57.834 11.216 56.497 11.216 C 55.16 11.216 54.117 11.43 53.184 11.859 C 52.251 12.287 51.523 12.897 51.002 13.689 C 50.481 14.481 50.222 15.422 50.222 16.513 C 50.222 18.02 50.727 19.236 51.737 20.154 C 52.747 21.071 54.101 21.6 55.798 21.741 L 57.083 21.859 C 58.125 21.952 58.881 22.158 59.345 22.477 C 59.81 22.796 60.044 23.228 60.044 23.77 C 60.044 24.206 59.919 24.59 59.673 24.925 C 59.422 25.261 59.059 25.519 58.578 25.705 C 58.097 25.891 57.495 25.984 56.78 25.984 C 55.988 25.984 55.341 25.871 54.844 25.644 C 54.347 25.418 53.976 25.119 53.737 24.747 C 53.495 24.376 53.378 23.972 53.378 23.535 L 49.669 23.535 C 49.669 24.638 49.939 25.616 50.485 26.465 C 51.03 27.313 51.83 27.98 52.889 28.473 C 53.947 28.962 55.244 29.208 56.784 29.208 C 58.23 29.208 59.475 28.982 60.517 28.533 C 61.56 28.081 62.364 27.446 62.933 26.63 C 63.499 25.814 63.786 24.861 63.786 23.774 C 63.786 22.687 63.519 21.818 62.982 21.079 C 62.444 20.339 61.701 19.758 60.756 19.329 Z M 73.414 15.58 L 73.252 15.58 C 72.286 15.58 71.486 15.81 70.848 16.267 C 70.254 16.695 69.798 17.309 69.47 18.109 L 69.47 11.729 L 65.737 11.729 L 65.737 28.76 L 69.47 28.76 L 69.47 21.386 C 69.47 20.638 69.684 20.04 70.113 19.588 C 70.541 19.135 71.103 18.913 71.806 18.913 C 72.509 18.913 73.014 19.127 73.426 19.556 C 73.838 19.984 74.044 20.545 74.044 21.248 L 74.044 28.76 L 77.777 28.76 L 77.777 21.483 C 77.777 19.556 77.406 18.089 76.658 17.087 C 75.911 16.085 74.832 15.584 73.414 15.584 Z M 82.537 14.715 C 83.236 14.715 83.753 14.533 84.088 14.166 C 84.424 13.802 84.589 13.337 84.589 12.776 C 84.589 12.214 84.424 11.729 84.088 11.366 C 83.753 11.002 83.236 10.816 82.537 10.816 C 81.838 10.816 81.321 10.998 80.985 11.366 C 80.65 11.733 80.484 12.202 80.484 12.776 C 80.484 13.349 80.65 13.798 80.985 14.166 C 81.321 14.533 81.838 14.715 82.537 14.715 Z M 79.386 15.976 L 79.386 18.727 L 81.091 18.727 L 81.091 28.76 L 84.82 28.76 L 84.82 15.976 Z M 96.985 16.453 C 96.044 15.838 94.888 15.531 93.523 15.531 C 92.48 15.531 91.551 15.713 90.735 16.081 C 89.919 16.448 89.236 16.941 88.695 17.564 C 88.15 18.184 87.726 18.901 87.446 19.677 C 87.159 20.461 87.014 21.281 87.014 22.137 L 87.014 22.602 C 87.014 23.426 87.159 24.23 87.446 25.018 C 87.733 25.802 88.153 26.513 88.707 27.139 C 89.26 27.77 89.951 28.271 90.783 28.642 C 91.616 29.014 92.577 29.204 93.664 29.204 C 94.751 29.204 95.684 29.018 96.509 28.642 C 97.333 28.271 98.016 27.749 98.561 27.079 C 99.107 26.412 99.47 25.648 99.656 24.792 L 96.226 24.792 C 96.068 25.18 95.773 25.507 95.341 25.774 C 94.905 26.04 94.347 26.17 93.66 26.17 C 92.913 26.17 92.307 26.016 91.842 25.705 C 91.377 25.394 91.034 24.954 90.816 24.388 C 90.695 24.073 90.61 23.725 90.557 23.349 L 99.891 23.349 L 99.891 22.089 C 99.891 20.921 99.64 19.846 99.143 18.857 C 98.646 17.871 97.927 17.067 96.985 16.453 Z M 90.84 20.303 C 91.074 19.737 91.414 19.305 91.866 19.01 C 92.319 18.715 92.868 18.566 93.523 18.566 C 94.177 18.566 94.695 18.711 95.119 18.998 C 95.547 19.285 95.87 19.701 96.088 20.246 C 96.206 20.541 96.291 20.869 96.343 21.224 L 90.581 21.224 C 90.638 20.889 90.723 20.578 90.84 20.303 Z M 100.545 11.729 L 100.545 14.481 L 102.061 14.481 L 102.061 28.76 L 105.818 28.76 L 105.818 11.729 Z M 119.143 11.071 L 115.115 11.071 L 115.115 29.002 L 119.143 29.002 Z M 138.513 16.388 C 138.113 15.333 137.503 14.396 136.683 13.576 C 135.863 12.756 134.848 12.109 133.636 11.636 C 132.424 11.164 131.006 10.925 129.386 10.925 L 122.727 10.925 L 122.727 29.103 L 129.386 29.103 C 131.006 29.103 132.424 28.848 133.636 28.343 C 134.848 27.834 135.863 27.16 136.683 26.315 C 137.503 25.471 138.113 24.521 138.513 23.467 C 138.913 22.412 139.115 21.341 139.115 20.263 L 139.115 19.721 C 139.115 18.558 138.913 17.451 138.513 16.392 Z M 134.671 22.186 C 134.424 22.848 134.065 23.414 133.592 23.883 C 133.115 24.352 132.545 24.711 131.871 24.966 C 131.2 25.22 130.444 25.345 129.612 25.345 L 126.764 25.345 L 126.764 14.683 L 129.612 14.683 C 130.448 14.683 131.2 14.8 131.871 15.038 C 132.541 15.277 133.115 15.624 133.592 16.081 C 134.065 16.537 134.428 17.095 134.671 17.749 C 134.913 18.404 135.038 19.152 135.038 19.984 C 135.038 20.816 134.917 21.519 134.671 22.182 Z" fill="rgb(255,255,255)"></path></g></svg>